<svg width="32" height="36" viewBox="0 0 32 36" fill="none" xmlns="http://www.w3.org/2000/svg">
<path d="M28.375 15.75H26.6875V10.6875C26.6875 4.79531 21.8922 0 16 0C10.1078 0 5.3125 4.79531 5.3125 10.6875V15.75H3.625C1.76172 15.75 0.25 17.2617 0.25 19.125V32.625C0.25 34.4883 1.76172 36 3.625 36H28.375C30.2383 36 31.75 34.4883 31.75 32.625V19.125C31.75 17.2617 30.2383 15.75 28.375 15.75ZM21.0625 15.75H10.9375V10.6875C10.9375 7.89609 13.2086 5.625 16 5.625C18.7914 5.625 21.0625 7.89609 21.0625 10.6875V15.75Z" fill="#2563EB"/>
</svg>
