<svg width="36" height="36" viewBox="0 0 36 36" fill="none" xmlns="http://www.w3.org/2000/svg">
<path d="M29.25 13.5H28.125C27.5034 13.5 27 14.0034 27 14.625V18C27 23.2594 22.4655 27.4795 17.1007 26.9564C12.4249 26.5001 9 22.2968 9 17.5992V14.625C9 14.0034 8.49656 13.5 7.875 13.5H6.75C6.12844 13.5 5.625 14.0034 5.625 14.625V17.4487C5.625 23.7516 10.1229 29.3702 16.3125 30.2238V32.625H12.375C11.7534 32.625 11.25 33.1284 11.25 33.75V34.875C11.25 35.4966 11.7534 36 12.375 36H23.625C24.2466 36 24.75 35.4966 24.75 34.875V33.75C24.75 33.1284 24.2466 32.625 23.625 32.625H19.6875V30.2505C25.714 29.4237 30.375 24.2508 30.375 18V14.625C30.375 14.0034 29.8716 13.5 29.25 13.5ZM18 24.75C21.728 24.75 24.75 21.728 24.75 18H18.7502C18.3361 18 18 17.7483 18 17.4375V16.3125C18 16.0017 18.3361 15.75 18.7502 15.75H24.75V13.5H18.7502C18.3361 13.5 18 13.2483 18 12.9375V11.8125C18 11.5017 18.3361 11.25 18.7502 11.25H24.75V9H18.7502C18.3361 9 18 8.74828 18 8.4375V7.3125C18 7.00172 18.3361 6.75 18.7502 6.75H24.75C24.75 3.02203 21.728 0 18 0C14.272 0 11.25 3.02203 11.25 6.75V18C11.25 21.728 14.272 24.75 18 24.75Z" fill="#2563EB"/>
</svg>
