<svg width="36" height="36" viewBox="0 0 36 36" fill="none" xmlns="http://www.w3.org/2000/svg">
<path d="M32.8008 5.88514L19.3008 0.260142C18.8896 0.0895495 18.4487 0.0017395 18.0035 0.0017395C17.5583 0.0017395 17.1175 0.0895495 16.7063 0.260142L3.20625 5.88514C1.94766 6.40545 1.125 7.63592 1.125 8.99999C1.125 22.957 9.17578 32.6039 16.6992 35.7398C17.5289 36.0844 18.4641 36.0844 19.2937 35.7398C25.3195 33.2297 34.875 24.5601 34.875 8.99999C34.875 7.63592 34.0523 6.40545 32.8008 5.88514ZM18.007 31.3805L18 4.59139L30.368 9.7453C30.1359 20.3906 24.5953 28.1039 18.007 31.3805Z" fill="#2563EB"/>
</svg>
